<?xml version="1.0" encoding="utf-8"?>
<!-- Generator: Adobe Illustrator 23.0.0, SVG Export Plug-In . SVG Version: 6.00 Build 0)  -->
<svg version="1.1" id="Capa_1" xmlns="http://www.w3.org/2000/svg" xmlns:xlink="http://www.w3.org/1999/xlink" x="0px" y="0px"
	 viewBox="0 0 33 103" style="enable-background:new 0 0 33 103;" xml:space="preserve">
<style type="text/css">
	.st0{fill:none;stroke:#000000;stroke-miterlimit:10;}
</style>
<g>
	<g>
		<line class="st0" x1="16.5" y1="87.3" x2="16.5" y2="10"/>
		<g>
			<path d="M4.4,85.4c5.1,3,9,7.7,12.1,12.6c3-5,7.2-9.5,12.1-12.6v-3c-4.8,3.1-9,6.9-12.1,11.6c-3.2-4.7-7.4-8.6-12.1-11.6V85.4z"
				/>
			<path d="M4.4,78.2c5.1,3,9,7.7,12.1,12.6c3-5,7.2-9.5,12.1-12.6v-3c-4.8,3.1-9,6.9-12.1,11.6c-3.2-4.7-7.4-8.6-12.1-11.6V78.2z"
				/>
		</g>
	</g>
</g>
</svg>
