<?xml version="1.0" encoding="utf-8"?>
<!-- Generator: Adobe Illustrator 23.0.0, SVG Export Plug-In . SVG Version: 6.00 Build 0)  -->
<svg version="1.1" id="Capa_1" xmlns="http://www.w3.org/2000/svg" xmlns:xlink="http://www.w3.org/1999/xlink" x="0px" y="0px"
	 viewBox="0 0 51.9 38.5" style="enable-background:new 0 0 51.9 38.5;" xml:space="preserve">
<style type="text/css">
	.st0{fill:#020203;}
</style>
<g>
	<path class="st0" d="M39.5,12.9c0,0.8-0.9,1.5-2,1.5h-25c-1.1,0-2-0.7-2-1.5s0.9-1.5,2-1.5h25C38.6,11.4,39.5,12.1,39.5,12.9z"/>
</g>
<g>
	<path class="st0" d="M39.5,19.9c0,0.8-0.9,1.5-2,1.5h-25c-1.1,0-2-0.7-2-1.5s0.9-1.5,2-1.5h25C38.6,18.4,39.5,19.1,39.5,19.9z"/>
</g>
<g>
	<path class="st0" d="M39.5,26.9c0,0.8-0.9,1.5-2,1.5h-25c-1.1,0-2-0.7-2-1.5s0.9-1.5,2-1.5h25C38.6,25.4,39.5,26.1,39.5,26.9z"/>
</g>
</svg>
